<svg width="969" height="541" viewBox="0 0 969 541" fill="none" xmlns="http://www.w3.org/2000/svg">
<path d="M137.147 76.5555C141.761 76.5555 145.521 77.9227 148.426 80.6571C151.331 83.3915 152.784 86.9804 152.784 91.4238C152.784 95.8672 151.331 99.4561 148.426 102.19C145.521 104.754 141.761 106.036 137.147 106.036H96.9V240.363C96.9 244.806 95.2765 248.566 92.0294 251.642C88.7823 254.547 84.7661 256 79.981 256C75.1958 256 71.2651 254.547 68.1889 251.642C65.1127 248.566 63.5746 244.806 63.5746 240.363V106.036H23.3278C18.7135 106.036 14.9537 104.669 12.0484 101.934C9.14312 99.1997 7.69048 95.6108 7.69048 91.1675C7.69048 86.895 9.14312 83.3915 12.0484 80.6571C15.1246 77.9227 18.8844 76.5555 23.3278 76.5555H137.147ZM262.596 116.29C267.039 116.29 270.713 117.742 273.619 120.648C276.524 123.553 277.977 127.313 277.977 131.927V240.363C277.977 244.806 276.524 248.566 273.619 251.642C270.713 254.547 267.039 256 262.596 256C258.152 256 254.478 254.547 251.573 251.642C248.838 248.737 247.386 245.062 247.215 240.619C242.942 245.575 237.132 249.848 229.783 253.437C222.605 256.854 215 258.563 206.968 258.563C195.176 258.563 184.495 255.573 174.924 249.591C165.354 243.439 157.749 234.979 152.109 224.213C146.64 213.446 143.906 201.227 143.906 187.555C143.906 173.883 146.64 161.663 152.109 150.897C157.578 139.959 165.012 131.5 174.412 125.518C183.982 119.366 194.492 116.29 205.943 116.29C214.146 116.29 221.836 117.828 229.014 120.904C236.192 123.809 242.259 127.569 247.215 132.183V131.927C247.215 127.484 248.667 123.809 251.573 120.904C254.478 117.828 258.152 116.29 262.596 116.29ZM210.813 230.365C221.922 230.365 230.979 226.349 237.986 218.317C244.993 210.113 248.497 199.86 248.497 187.555C248.497 175.25 244.993 164.996 237.986 156.793C230.979 148.59 221.922 144.488 210.813 144.488C199.876 144.488 190.903 148.59 183.897 156.793C176.89 164.996 173.386 175.25 173.386 187.555C173.386 199.86 176.804 210.113 183.64 218.317C190.647 226.349 199.705 230.365 210.813 230.365ZM382.323 116.29C394.115 116.29 404.796 119.366 414.366 125.518C423.937 131.5 431.456 139.874 436.925 150.64C442.565 161.407 445.385 173.626 445.385 187.298C445.385 200.97 442.65 213.275 437.182 224.213C431.713 234.979 424.193 243.439 414.623 249.591C405.223 255.573 394.798 258.563 383.348 258.563C375.145 258.563 367.369 256.94 360.02 253.693C352.843 250.275 346.861 246.173 342.076 241.388V242.926C342.076 247.37 340.623 251.129 337.718 254.206C334.813 257.111 331.138 258.563 326.695 258.563C322.252 258.563 318.577 257.111 315.672 254.206C312.767 251.3 311.314 247.54 311.314 242.926V81.9389C311.314 77.4955 312.767 73.8211 315.672 70.9159C318.577 67.8397 322.252 66.3016 326.695 66.3016C331.138 66.3016 334.813 67.8397 337.718 70.9159C340.623 73.8211 342.076 77.4955 342.076 81.9389V135.516C346.178 130.389 351.903 125.945 359.251 122.186C366.6 118.255 374.291 116.29 382.323 116.29ZM378.478 230.365C389.415 230.365 398.387 226.263 405.394 218.06C412.401 209.857 415.905 199.603 415.905 187.298C415.905 174.994 412.401 164.825 405.394 156.793C398.558 148.59 389.586 144.488 378.478 144.488C367.369 144.488 358.311 148.59 351.305 156.793C344.298 164.825 340.794 174.994 340.794 187.298C340.794 199.603 344.298 209.857 351.305 218.06C358.311 226.263 367.369 230.365 378.478 230.365ZM504.357 240.363C504.357 244.806 502.819 248.566 499.743 251.642C496.837 254.547 493.163 256 488.72 256C484.447 256 480.858 254.547 477.953 251.642C475.048 248.566 473.595 244.806 473.595 240.363V81.9389C473.595 77.4955 475.048 73.8211 477.953 70.9159C481.029 67.8397 484.789 66.3016 489.232 66.3016C493.505 66.3016 497.094 67.8397 499.999 70.9159C502.904 73.8211 504.357 77.4955 504.357 81.9389V240.363ZM660.67 184.222C660.499 188.324 658.876 191.656 655.799 194.22C652.723 196.783 649.134 198.065 645.033 198.065H560.437C562.488 208.148 567.188 216.095 574.537 221.906C581.885 227.545 590.174 230.365 599.403 230.365C606.409 230.365 611.878 229.767 615.809 228.571C619.74 227.203 622.816 225.836 625.037 224.469C627.43 222.931 629.054 221.906 629.908 221.393C632.984 219.855 635.89 219.086 638.624 219.086C642.213 219.086 645.289 220.367 647.853 222.931C650.416 225.494 651.698 228.485 651.698 231.903C651.698 236.517 649.305 240.704 644.52 244.464C639.735 248.395 633.326 251.728 625.294 254.462C617.262 257.196 609.144 258.563 600.941 258.563C586.585 258.563 574.024 255.573 563.257 249.591C552.662 243.61 544.458 235.407 538.648 224.982C532.837 214.386 529.932 202.508 529.932 189.349C529.932 174.652 533.008 161.749 539.16 150.64C545.313 139.532 553.431 131.072 563.514 125.262C573.597 119.28 584.363 116.29 595.814 116.29C607.093 116.29 617.689 119.366 627.601 125.518C637.684 131.671 645.716 139.959 651.698 150.384C657.679 160.809 660.67 172.088 660.67 184.222ZM595.814 144.488C575.989 144.488 564.283 153.802 560.694 172.43H627.857V170.636C627.174 163.458 623.67 157.306 617.347 152.179C611.024 147.052 603.846 144.488 595.814 144.488Z" fill="#161616"/>
<path d="M148.426 80.6571L144.999 84.2981L148.426 80.6571ZM148.426 102.19L151.734 105.94L151.795 105.887L151.853 105.831L148.426 102.19ZM96.9 106.036V101.036H91.9V106.036H96.9ZM92.0294 251.642L95.3633 255.368L95.4164 255.321L95.4681 255.272L92.0294 251.642ZM68.1889 251.642L64.6534 255.178L64.7039 255.228L64.7558 255.277L68.1889 251.642ZM63.5746 106.036H68.5746V101.036H63.5746V106.036ZM12.0484 101.934L8.62159 105.575L8.62159 105.575L12.0484 101.934ZM12.0484 80.6571L8.72659 76.9201L8.67341 76.9674L8.62159 77.0161L12.0484 80.6571ZM137.147 81.5555C140.701 81.5555 143.166 82.573 144.999 84.2981L151.853 77.0161C147.875 73.2725 142.821 71.5555 137.147 71.5555V81.5555ZM144.999 84.2981C146.781 85.9751 147.784 88.1857 147.784 91.4238H157.784C157.784 85.7751 155.882 80.808 151.853 77.0161L144.999 84.2981ZM147.784 91.4238C147.784 94.6618 146.781 96.8725 144.999 98.5495L151.853 105.831C155.882 102.04 157.784 97.0725 157.784 91.4238H147.784ZM145.118 98.4413C143.295 100.05 140.788 101.036 137.147 101.036V111.036C142.734 111.036 147.747 109.458 151.734 105.94L145.118 98.4413ZM137.147 101.036H96.9V111.036H137.147V101.036ZM91.9 106.036V240.363H101.9V106.036H91.9ZM91.9 240.363C91.9 243.423 90.8485 245.873 88.5907 248.012L95.4681 255.272C99.7044 251.258 101.9 246.189 101.9 240.363H91.9ZM88.6954 247.916C86.458 249.918 83.6666 251 79.981 251V261C85.8657 261 91.1066 259.177 95.3633 255.368L88.6954 247.916ZM79.981 251C76.2919 251 73.6466 249.919 71.622 248.007L64.7558 255.277C68.8836 259.176 74.0997 261 79.981 261V251ZM71.7244 248.107C69.6082 245.99 68.5746 243.512 68.5746 240.363H58.5746C58.5746 246.1 60.6173 251.141 64.6534 255.178L71.7244 248.107ZM68.5746 240.363V106.036H58.5746V240.363H68.5746ZM63.5746 101.036H23.3278V111.036H63.5746V101.036ZM23.3278 101.036C19.7733 101.036 17.3082 100.018 15.4752 98.2931L8.62159 105.575C12.5992 109.319 17.6537 111.036 23.3278 111.036V101.036ZM15.4752 98.2931C13.6935 96.6162 12.6905 94.4055 12.6905 91.1675H2.69048C2.69048 96.8162 4.59277 101.783 8.62159 105.575L15.4752 98.2931ZM12.6905 91.1675C12.6905 88.1644 13.6507 86.0153 15.4752 84.2981L8.62159 77.0161C4.6355 80.7677 2.69048 85.6255 2.69048 91.1675H12.6905ZM15.3702 84.3942C17.4551 82.541 20.0032 81.5555 23.3278 81.5555V71.5555C17.7656 71.5555 12.7941 73.3045 8.72659 76.9201L15.3702 84.3942ZM23.3278 81.5555H137.147V71.5555H23.3278V81.5555ZM273.619 120.648L270.083 124.183V124.183L273.619 120.648ZM273.619 251.642L277.154 255.178L277.205 255.127L277.254 255.075L273.619 251.642ZM251.573 251.642L247.932 255.069L247.984 255.124L248.037 255.178L251.573 251.642ZM247.215 240.619L252.211 240.427L251.723 227.732L243.428 237.354L247.215 240.619ZM229.783 253.437L231.933 257.951L231.955 257.94L231.977 257.929L229.783 253.437ZM174.924 249.591L172.221 253.797L172.247 253.814L172.274 253.831L174.924 249.591ZM152.109 224.213L147.651 226.477L147.665 226.505L147.68 226.533L152.109 224.213ZM152.109 150.897L156.567 153.161L156.574 153.147L156.581 153.133L152.109 150.897ZM174.412 125.518L177.096 129.737L177.106 129.73L177.115 129.724L174.412 125.518ZM229.014 120.904L227.044 125.5L227.091 125.52L227.138 125.539L229.014 120.904ZM247.215 132.183L243.808 135.843L252.215 143.67V132.183H247.215ZM251.573 120.904L255.108 124.439L255.159 124.389L255.208 124.337L251.573 120.904ZM237.986 218.317L241.754 221.604L241.771 221.584L241.788 221.564L237.986 218.317ZM237.986 156.793L234.184 160.04L237.986 156.793ZM183.897 156.793L187.698 160.04L183.897 156.793ZM183.64 218.317L179.799 221.518L179.835 221.561L179.872 221.604L183.64 218.317ZM262.596 121.29C265.832 121.29 268.197 122.297 270.083 124.183L277.154 117.112C273.23 113.188 268.246 111.29 262.596 111.29V121.29ZM270.083 124.183C271.932 126.032 272.977 128.461 272.977 131.927H282.977C282.977 126.165 281.116 121.074 277.154 117.112L270.083 124.183ZM272.977 131.927V240.363H282.977V131.927H272.977ZM272.977 240.363C272.977 243.6 271.965 246.111 269.984 248.209L277.254 255.075C281.083 251.021 282.977 246.012 282.977 240.363H272.977ZM270.083 248.107C268.197 249.993 265.832 251 262.596 251V261C268.246 261 273.23 259.102 277.154 255.178L270.083 248.107ZM262.596 251C259.359 251 256.995 249.993 255.108 248.107L248.037 255.178C251.961 259.102 256.945 261 262.596 261V251ZM255.214 248.215C253.403 246.291 252.341 243.812 252.211 240.427L242.218 240.811C242.43 246.313 244.274 251.182 247.932 255.069L255.214 248.215ZM243.428 237.354C239.693 241.686 234.476 245.58 227.589 248.944L231.977 257.929C239.787 254.115 246.191 249.464 251.002 243.884L243.428 237.354ZM227.633 248.922C221.134 252.017 214.264 253.563 206.968 253.563V263.564C215.736 263.564 224.076 261.692 231.933 257.951L227.633 248.922ZM206.968 253.563C196.069 253.563 186.313 250.813 177.574 245.351L172.274 253.831C182.676 260.332 194.283 263.564 206.968 263.564V253.563ZM177.628 245.385C168.836 239.734 161.804 231.946 156.538 221.893L147.68 226.533C153.693 238.013 161.872 247.144 172.221 253.797L177.628 245.385ZM156.567 221.948C151.499 211.971 148.906 200.545 148.906 187.555H138.906C138.906 201.909 141.782 214.921 147.651 226.477L156.567 221.948ZM148.906 187.555C148.906 174.565 151.499 163.138 156.567 153.161L147.651 148.632C141.782 160.189 138.906 173.201 138.906 187.555H148.906ZM156.581 153.133C161.686 142.924 168.534 135.185 177.096 129.737L171.727 121.3C161.49 127.815 153.47 136.994 147.637 148.661L156.581 153.133ZM177.115 129.724C185.874 124.094 195.445 121.29 205.943 121.29V111.29C193.54 111.29 182.09 114.638 171.708 121.312L177.115 129.724ZM205.943 121.29C213.503 121.29 220.52 122.704 227.044 125.5L230.984 116.308C223.152 112.952 214.788 111.29 205.943 111.29V121.29ZM227.138 125.539C233.83 128.248 239.357 131.699 243.808 135.843L250.622 128.524C245.16 123.439 238.553 119.371 230.89 116.269L227.138 125.539ZM252.215 132.183V131.927H242.215V132.183H252.215ZM252.215 131.927C252.215 128.69 253.222 126.326 255.108 124.439L248.037 117.368C244.113 121.292 242.215 126.277 242.215 131.927H252.215ZM255.208 124.337C257.117 122.316 259.451 121.29 262.596 121.29V111.29C256.854 111.29 251.839 113.34 247.938 117.471L255.208 124.337ZM210.813 235.365C223.297 235.365 233.753 230.776 241.754 221.604L234.218 215.03C228.206 221.922 220.547 225.365 210.813 225.365V235.365ZM241.788 221.564C249.676 212.329 253.497 200.872 253.497 187.555H243.497C243.497 198.847 240.31 207.898 234.184 215.069L241.788 221.564ZM253.497 187.555C253.497 174.237 249.676 162.78 241.788 153.545L234.184 160.04C240.31 167.212 243.497 176.263 243.497 187.555H253.497ZM241.788 153.545C233.799 144.193 223.334 139.488 210.813 139.488V149.488C220.509 149.488 228.159 152.987 234.184 160.04L241.788 153.545ZM210.813 139.488C198.436 139.488 188.067 144.212 180.095 153.545L187.698 160.04C193.74 152.967 201.315 149.488 210.813 149.488V139.488ZM180.095 153.545C172.206 162.78 168.386 174.237 168.386 187.555H178.386C178.386 176.263 181.573 167.212 187.698 160.04L180.095 153.545ZM168.386 187.555C168.386 200.841 172.102 212.281 179.799 221.518L187.481 215.116C181.506 207.946 178.386 198.878 178.386 187.555H168.386ZM179.872 221.604C187.873 230.776 198.33 235.365 210.813 235.365V225.365C201.08 225.365 193.421 221.922 187.408 215.03L179.872 221.604ZM414.366 125.518L411.663 129.724L411.689 129.741L411.716 129.758L414.366 125.518ZM436.925 150.64L432.467 152.905L432.481 152.933L432.496 152.961L436.925 150.64ZM437.182 224.213L441.639 226.477L441.647 226.463L441.654 226.449L437.182 224.213ZM414.623 249.591L417.307 253.81L417.317 253.803L417.327 253.797L414.623 249.591ZM360.02 253.693L357.871 258.207L357.935 258.238L358 258.266L360.02 253.693ZM342.076 241.388L345.612 237.853L337.076 229.317V241.388H342.076ZM337.718 254.206L341.254 257.741L341.304 257.691L341.353 257.639L337.718 254.206ZM315.672 254.206L312.136 257.741L315.672 254.206ZM315.672 70.9159L319.208 74.4514L319.258 74.4009L319.307 74.349L315.672 70.9159ZM337.718 70.9159L334.083 74.349L334.132 74.4009L334.182 74.4514L337.718 70.9159ZM342.076 135.516H337.076V149.77L345.98 138.639L342.076 135.516ZM359.251 122.186L361.529 126.637L361.569 126.616L361.61 126.595L359.251 122.186ZM405.394 218.06L401.592 214.813H401.592L405.394 218.06ZM405.394 156.793L401.553 159.994L401.589 160.037L401.626 160.08L405.394 156.793ZM351.305 156.793L355.072 160.08L355.09 160.06L355.106 160.04L351.305 156.793ZM351.305 218.06L347.503 221.308L351.305 218.06ZM382.323 121.29C393.193 121.29 402.929 124.11 411.663 129.724L417.07 121.312C406.663 114.622 395.037 111.29 382.323 111.29V121.29ZM411.716 129.758C420.462 135.224 427.38 142.89 432.467 152.905L441.383 148.376C435.532 136.858 427.412 127.776 417.016 121.278L411.716 129.758ZM432.496 152.961C437.716 162.926 440.385 174.332 440.385 187.298H450.385C450.385 172.921 447.414 159.888 441.354 148.32L432.496 152.961ZM440.385 187.298C440.385 200.287 437.792 211.812 432.709 221.977L441.654 226.449C447.509 214.739 450.385 201.654 450.385 187.298H440.385ZM432.724 221.948C427.631 231.974 420.697 239.743 411.919 245.385L417.327 253.797C427.69 247.135 435.794 237.985 441.639 226.477L432.724 221.948ZM411.938 245.373C403.364 250.829 393.875 253.563 383.348 253.563V263.564C395.722 263.564 407.082 260.316 417.307 253.81L411.938 245.373ZM383.348 253.563C375.826 253.563 368.74 252.079 362.041 249.119L358 258.266C365.998 261.801 374.464 263.564 383.348 263.564V253.563ZM362.17 249.179C355.419 245.964 349.93 242.171 345.612 237.853L338.54 244.924C343.792 250.175 350.267 254.586 357.871 258.207L362.17 249.179ZM337.076 241.388V242.926H347.076V241.388H337.076ZM337.076 242.926C337.076 246.164 336.064 248.674 334.083 250.772L341.353 257.639C345.182 253.584 347.076 248.576 347.076 242.926H337.076ZM334.182 250.67C332.296 252.557 329.932 253.563 326.695 253.563V263.564C332.345 263.564 337.33 261.665 341.254 257.741L334.182 250.67ZM326.695 253.563C323.458 253.563 321.094 252.557 319.208 250.67L312.136 257.741C316.061 261.665 321.045 263.564 326.695 263.564V253.563ZM319.208 250.67C317.359 248.821 316.314 246.393 316.314 242.926H306.314C306.314 248.688 308.175 253.779 312.136 257.741L319.208 250.67ZM316.314 242.926V81.9389H306.314V242.926H316.314ZM316.314 81.9389C316.314 78.7023 317.321 76.3379 319.208 74.4514L312.136 67.3803C308.212 71.3044 306.314 76.2887 306.314 81.9389H316.314ZM319.307 74.349C321.216 72.3279 323.55 71.3016 326.695 71.3016V61.3016C320.953 61.3016 315.939 63.3515 312.037 67.4827L319.307 74.349ZM326.695 71.3016C329.84 71.3016 332.174 72.3279 334.083 74.349L341.353 67.4827C337.451 63.3515 332.437 61.3016 326.695 61.3016V71.3016ZM334.182 74.4514C336.069 76.3379 337.076 78.7023 337.076 81.9389H347.076C347.076 76.2887 345.178 71.3044 341.254 67.3803L334.182 74.4514ZM337.076 81.9389V135.516H347.076V81.9389H337.076ZM345.98 138.639C349.541 134.188 354.653 130.155 361.529 126.637L356.974 117.734C349.152 121.736 342.814 126.59 338.172 132.392L345.98 138.639ZM361.61 126.595C368.261 123.037 375.145 121.29 382.323 121.29V111.29C373.436 111.29 364.939 113.473 356.893 117.777L361.61 126.595ZM378.478 235.365C390.854 235.365 401.224 230.641 409.196 221.308L401.592 214.813C395.55 221.886 387.976 225.365 378.478 225.365V235.365ZM409.196 221.308C417.084 212.073 420.905 200.616 420.905 187.298H410.905C410.905 198.59 407.718 207.642 401.592 214.813L409.196 221.308ZM420.905 187.298C420.905 173.983 417.085 162.588 409.162 153.506L401.626 160.08C407.718 167.062 410.905 176.004 410.905 187.298H420.905ZM409.235 153.592C401.406 144.197 391.001 139.488 378.478 139.488V149.488C388.171 149.488 395.71 152.982 401.553 159.994L409.235 153.592ZM378.478 139.488C365.956 139.488 355.491 144.193 347.503 153.545L355.106 160.04C361.131 152.987 368.782 149.488 378.478 149.488V139.488ZM347.537 153.506C339.614 162.588 335.794 173.983 335.794 187.298H345.794C345.794 176.004 348.981 167.062 355.072 160.08L347.537 153.506ZM335.794 187.298C335.794 200.616 339.614 212.073 347.503 221.308L355.106 214.813C348.981 207.642 345.794 198.59 345.794 187.298H335.794ZM347.503 221.308C355.491 230.66 365.956 235.365 378.478 235.365V225.365C368.782 225.365 361.131 221.867 355.106 214.813L347.503 221.308ZM499.743 251.642L496.207 248.107V248.107L499.743 251.642ZM477.953 251.642L474.318 255.075L474.367 255.127L474.418 255.178L477.953 251.642ZM477.953 70.9159L474.418 67.3803L474.418 67.3803L477.953 70.9159ZM499.999 70.9159L496.364 74.349L496.413 74.4009L496.464 74.4514L499.999 70.9159ZM499.357 240.363C499.357 243.512 498.324 245.99 496.207 248.107L503.278 255.178C507.314 251.141 509.357 246.1 509.357 240.363H499.357ZM496.207 248.107C494.321 249.993 491.956 251 488.72 251V261C494.37 261 499.354 259.102 503.278 255.178L496.207 248.107ZM488.72 251C485.714 251 483.415 250.033 481.489 248.107L474.418 255.178C478.301 259.061 483.18 261 488.72 261V251ZM481.588 248.209C479.607 246.111 478.595 243.6 478.595 240.363H468.595C468.595 246.012 470.489 251.021 474.318 255.075L481.588 248.209ZM478.595 240.363V81.9389H468.595V240.363H478.595ZM478.595 81.9389C478.595 78.7023 479.602 76.3379 481.489 74.4514L474.418 67.3803C470.493 71.3044 468.595 76.2887 468.595 81.9389H478.595ZM481.489 74.4514C483.605 72.3351 486.083 71.3016 489.232 71.3016V61.3016C483.495 61.3016 478.454 63.3442 474.418 67.3803L481.489 74.4514ZM489.232 71.3016C492.145 71.3016 494.414 72.2839 496.364 74.349L503.634 67.4827C499.774 63.3954 494.865 61.3016 489.232 61.3016V71.3016ZM496.464 74.4514C498.35 76.3379 499.357 78.7023 499.357 81.9389H509.357C509.357 76.2887 507.459 71.3044 503.535 67.3803L496.464 74.4514ZM499.357 81.9389V240.363H509.357V81.9389H499.357ZM660.67 184.222L665.666 184.43L665.67 184.326V184.222H660.67ZM560.437 198.065V193.065H554.318L555.538 199.062L560.437 198.065ZM574.537 221.906L571.435 225.828L571.464 225.85L571.493 225.872L574.537 221.906ZM615.809 228.571L617.265 233.354L617.359 233.325L617.451 233.293L615.809 228.571ZM625.037 224.469L627.658 228.727L627.7 228.702L627.741 228.675L625.037 224.469ZM629.908 221.393L627.672 216.921L627.5 217.007L627.336 217.105L629.908 221.393ZM644.52 244.464L641.431 240.533L641.388 240.566L641.346 240.601L644.52 244.464ZM625.294 254.462L623.682 249.729L625.294 254.462ZM563.257 249.591L560.799 253.945L560.814 253.954L560.829 253.962L563.257 249.591ZM538.648 224.982L534.264 227.386L534.272 227.401L534.28 227.416L538.648 224.982ZM539.16 150.64L534.786 148.218L539.16 150.64ZM563.514 125.262L566.01 129.594L566.037 129.578L566.065 129.562L563.514 125.262ZM627.601 125.518L624.964 129.766L624.98 129.777L624.997 129.786L627.601 125.518ZM651.698 150.384L656.035 147.896L651.698 150.384ZM560.694 172.43L555.784 171.484L554.639 177.43H560.694V172.43ZM627.857 172.43V177.43H632.857V172.43H627.857ZM627.857 170.636H632.857V170.398L632.835 170.162L627.857 170.636ZM655.674 184.014C655.56 186.746 654.56 188.744 652.598 190.379L659 198.061C663.191 194.568 665.438 189.902 665.666 184.43L655.674 184.014ZM652.598 190.379C650.444 192.174 647.996 193.065 645.033 193.065V203.065C650.273 203.065 655.002 201.393 659 198.061L652.598 190.379ZM645.033 193.065H560.437V203.065H645.033V193.065ZM555.538 199.062C557.799 210.18 563.068 219.211 571.435 225.828L577.638 217.983C571.308 212.979 567.177 206.117 565.337 197.069L555.538 199.062ZM571.493 225.872C579.711 232.179 589.069 235.365 599.403 235.365V225.365C591.279 225.365 584.06 222.911 577.581 217.939L571.493 225.872ZM599.403 235.365C606.607 235.365 612.645 234.76 617.265 233.354L614.353 223.787C611.112 224.774 606.211 225.365 599.403 225.365V235.365ZM617.451 233.293C621.548 231.868 625.002 230.362 627.658 228.727L622.417 220.211C620.63 221.311 617.931 222.539 614.166 223.848L617.451 233.293ZM627.741 228.675C630.142 227.131 631.703 226.147 632.481 225.68L627.336 217.105C626.405 217.664 624.718 218.73 622.334 220.263L627.741 228.675ZM632.144 225.865C634.701 224.587 636.84 224.086 638.624 224.086V214.086C634.939 214.086 631.268 215.123 627.672 216.921L632.144 225.865ZM638.624 224.086C640.872 224.086 642.68 224.83 644.317 226.466L651.388 219.395C647.898 215.905 643.554 214.086 638.624 214.086V224.086ZM644.317 226.466C646.006 228.155 646.698 229.898 646.698 231.903H656.698C656.698 227.072 654.826 222.833 651.388 219.395L644.317 226.466ZM646.698 231.903C646.698 234.523 645.425 237.394 641.431 240.533L647.609 248.396C653.185 244.015 656.698 238.512 656.698 231.903H646.698ZM641.346 240.601C637.162 244.037 631.342 247.121 623.682 249.729L626.905 259.195C635.31 256.334 642.307 252.753 647.694 248.328L641.346 240.601ZM623.682 249.729C616.151 252.293 608.577 253.563 600.941 253.563V263.564C609.711 263.564 618.372 262.1 626.905 259.195L623.682 249.729ZM600.941 253.563C587.293 253.563 575.595 250.726 565.685 245.22L560.829 253.962C572.453 260.42 585.877 263.564 600.941 263.564V253.563ZM565.715 245.237C555.904 239.699 548.369 232.153 543.015 222.547L534.28 227.416C540.548 238.661 549.419 247.521 560.799 253.945L565.715 245.237ZM543.032 222.578C537.661 212.783 534.932 201.745 534.932 189.349H524.932C524.932 203.272 528.014 215.989 534.264 227.386L543.032 222.578ZM534.932 189.349C534.932 175.365 537.853 163.321 543.534 153.063L534.786 148.218C528.163 160.177 524.932 173.939 524.932 189.349H534.932ZM543.534 153.063C549.288 142.675 556.786 134.91 566.01 129.594L561.017 120.93C550.075 127.235 541.338 136.389 534.786 148.218L543.534 153.063ZM566.065 129.562C575.395 124.027 585.283 121.29 595.814 121.29V111.29C583.443 111.29 571.798 114.534 560.963 120.962L566.065 129.562ZM595.814 121.29C606.128 121.29 615.815 124.088 624.964 129.766L630.238 121.27C619.562 114.644 608.058 111.29 595.814 111.29V121.29ZM624.997 129.786C634.349 135.493 641.79 143.164 647.361 152.872L656.035 147.896C649.642 136.755 641.019 127.848 630.205 121.25L624.997 129.786ZM647.361 152.872C652.904 162.532 655.67 172.953 655.67 184.222H665.67C665.67 171.224 662.455 159.086 656.035 147.896L647.361 152.872ZM595.814 139.488C585.139 139.488 576.041 142 569.052 147.561C562.037 153.143 557.742 161.321 555.784 171.484L565.604 173.376C567.234 164.911 570.587 159.119 575.278 155.386C579.996 151.633 586.664 149.488 595.814 149.488V139.488ZM560.694 177.43H627.857V167.43H560.694V177.43ZM632.857 172.43V170.636H622.857V172.43H632.857ZM632.835 170.162C632.007 161.471 627.715 154.148 620.496 148.295L614.198 156.062C619.626 160.463 622.34 165.445 622.88 171.11L632.835 170.162ZM620.496 148.295C613.295 142.456 605.009 139.488 595.814 139.488V149.488C602.683 149.488 608.752 151.647 614.198 156.062L620.496 148.295Z" fill="#161616" fill-opacity="0.96"/>
<path d="M461.941 353.156C466.214 353.156 469.888 354.694 472.964 357.771C476.211 360.676 477.835 364.35 477.835 368.794V517.22C477.835 521.663 476.382 525.423 473.477 528.499C470.572 531.405 466.726 532.857 461.941 532.857C457.156 532.857 453.225 531.405 450.149 528.499C447.244 525.594 445.791 521.834 445.791 517.22V413.911L403.494 478.511C401.785 480.562 399.819 482.271 397.598 483.638C395.376 484.834 393.069 485.347 390.676 485.176C388.454 485.347 386.233 484.834 384.011 483.638C381.789 482.271 379.824 480.562 378.115 478.511L335.817 411.604V517.22C335.817 521.834 334.45 525.594 331.716 528.499C328.981 531.405 325.393 532.857 320.949 532.857C316.677 532.857 313.173 531.405 310.439 528.499C307.704 525.423 306.337 521.663 306.337 517.22V368.794C306.337 364.521 307.875 360.847 310.952 357.771C314.199 354.694 318.044 353.156 322.487 353.156C325.051 353.156 327.614 353.84 330.178 355.207C332.741 356.403 334.707 358.027 336.074 360.078L391.958 445.955L449.38 360.078C450.747 358.027 452.542 356.403 454.763 355.207C457.156 353.84 459.549 353.156 461.941 353.156ZM624.809 393.147C629.253 393.147 632.927 394.599 635.832 397.505C638.737 400.41 640.19 404.17 640.19 408.784V517.22C640.19 521.663 638.737 525.423 635.832 528.499C632.927 531.405 629.253 532.857 624.809 532.857C620.366 532.857 616.691 531.405 613.786 528.499C611.052 525.594 609.599 521.92 609.428 517.476C605.156 522.432 599.345 526.705 591.996 530.294C584.819 533.712 577.214 535.421 569.181 535.421C557.389 535.421 546.708 532.43 537.138 526.448C527.567 520.296 519.962 511.837 514.323 501.07C508.854 490.303 506.119 478.084 506.119 464.412C506.119 450.74 508.854 438.521 514.323 427.754C519.791 416.816 527.226 408.357 536.625 402.375C546.195 396.223 556.706 393.147 568.156 393.147C576.359 393.147 584.05 394.685 591.227 397.761C598.405 400.666 604.472 404.426 609.428 409.041V408.784C609.428 404.341 610.881 400.666 613.786 397.761C616.691 394.685 620.366 393.147 624.809 393.147ZM573.027 507.222C584.135 507.222 593.193 503.206 600.2 495.174C607.206 486.971 610.71 476.717 610.71 464.412C610.71 452.107 607.206 441.853 600.2 433.65C593.193 425.447 584.135 421.345 573.027 421.345C562.089 421.345 553.117 425.447 546.11 433.65C539.103 441.853 535.6 452.107 535.6 464.412C535.6 476.717 539.018 486.971 545.854 495.174C552.86 503.206 561.918 507.222 573.027 507.222ZM739.666 503.89C742.058 503.89 744.194 505.086 746.074 507.479C748.125 509.7 749.15 512.691 749.15 516.451C749.15 521.065 746.587 524.996 741.46 528.243C736.504 531.319 730.864 532.857 724.541 532.857C713.945 532.857 704.973 530.635 697.624 526.192C690.447 521.578 686.858 511.922 686.858 497.225V426.472H675.066C670.964 426.472 667.546 425.105 664.812 422.371C662.077 419.636 660.71 416.218 660.71 412.117C660.71 408.186 662.077 404.939 664.812 402.375C667.546 399.641 670.964 398.274 675.066 398.274H686.858V381.867C686.858 377.424 688.31 373.75 691.216 370.844C694.292 367.768 698.052 366.23 702.495 366.23C706.767 366.23 710.356 367.768 713.262 370.844C716.167 373.75 717.62 377.424 717.62 381.867V398.274H735.82C739.922 398.274 743.34 399.641 746.074 402.375C748.809 405.11 750.176 408.528 750.176 412.629C750.176 416.56 748.809 419.893 746.074 422.627C743.34 425.191 739.922 426.472 735.82 426.472H717.62V495.943C717.62 499.532 718.559 502.181 720.439 503.89C722.319 505.428 724.883 506.197 728.13 506.197C729.497 506.197 731.377 505.855 733.77 505.171C735.82 504.317 737.786 503.89 739.666 503.89ZM850.454 393.147C867.374 393.147 879.08 398.359 885.574 408.784C892.069 419.038 895.316 433.308 895.316 451.594V517.22C895.316 521.663 893.863 525.423 890.958 528.499C888.052 531.405 884.378 532.857 879.935 532.857C875.491 532.857 871.817 531.405 868.912 528.499C866.006 525.423 864.554 521.663 864.554 517.22V451.594C864.554 442.195 862.674 434.846 858.914 429.548C855.325 424.08 848.916 421.345 839.688 421.345C830.117 421.345 822.598 424.251 817.129 430.061C811.831 435.701 809.182 442.879 809.182 451.594V517.22C809.182 521.663 807.73 525.423 804.824 528.499C801.919 531.405 798.245 532.857 793.801 532.857C789.358 532.857 785.684 531.405 782.778 528.499C779.873 525.423 778.42 521.663 778.42 517.22V358.796C778.42 354.353 779.873 350.678 782.778 347.773C785.684 344.697 789.358 343.159 793.801 343.159C798.245 343.159 801.919 344.697 804.824 347.773C807.73 350.678 809.182 354.353 809.182 358.796V415.449C813.797 409.297 819.607 404.084 826.614 399.812C833.792 395.369 841.739 393.147 850.454 393.147Z" fill="#85AEE2"/>
<path d="M472.964 357.771L469.429 361.306L469.527 361.404L469.63 361.497L472.964 357.771ZM473.477 528.499L477.013 532.035L477.063 531.984L477.112 531.932L473.477 528.499ZM450.149 528.499L446.614 532.035L446.664 532.085L446.716 532.134L450.149 528.499ZM445.791 413.911H450.791V397.147L441.608 411.172L445.791 413.911ZM403.494 478.511L407.335 481.712L407.519 481.491L407.677 481.25L403.494 478.511ZM397.598 483.638L399.968 488.04L400.095 487.972L400.218 487.896L397.598 483.638ZM390.676 485.176L391.032 480.189L390.662 480.163L390.293 480.191L390.676 485.176ZM384.011 483.638L381.391 487.896L381.514 487.972L381.641 488.04L384.011 483.638ZM378.115 478.511L373.889 481.183L374.064 481.46L374.274 481.712L378.115 478.511ZM335.817 411.604L340.044 408.932L330.817 394.338V411.604H335.817ZM310.439 528.499L306.702 531.821L306.749 531.874L306.798 531.926L310.439 528.499ZM310.952 357.771L307.513 354.141L307.464 354.187L307.416 354.235L310.952 357.771ZM330.178 355.207L327.825 359.619L327.942 359.682L328.063 359.738L330.178 355.207ZM336.074 360.078L340.265 357.351L340.249 357.327L340.234 357.304L336.074 360.078ZM391.958 445.955L387.767 448.682L391.901 455.035L396.114 448.734L391.958 445.955ZM449.38 360.078L453.537 362.857L453.54 362.851L449.38 360.078ZM454.763 355.207L457.134 359.61L457.189 359.58L457.244 359.548L454.763 355.207ZM461.941 358.156C464.861 358.156 467.271 359.148 469.429 361.306L476.5 354.235C472.505 350.24 467.567 348.156 461.941 348.156V358.156ZM469.63 361.497C471.794 363.432 472.835 365.741 472.835 368.794H482.835C482.835 362.96 480.629 357.92 476.298 354.044L469.63 361.497ZM472.835 368.794V517.22H482.835V368.794H472.835ZM472.835 517.22C472.835 520.457 471.823 522.968 469.842 525.066L477.112 531.932C480.941 527.878 482.835 522.869 482.835 517.22H472.835ZM469.941 524.964C468.128 526.777 465.636 527.857 461.941 527.857V537.857C467.817 537.857 473.015 536.032 477.013 532.035L469.941 524.964ZM461.941 527.857C458.252 527.857 455.607 526.776 453.582 524.864L446.716 532.134C450.844 536.033 456.06 537.857 461.941 537.857V527.857ZM453.685 524.964C451.836 523.115 450.791 520.686 450.791 517.22H440.791C440.791 522.982 442.652 528.073 446.614 532.035L453.685 524.964ZM450.791 517.22V413.911H440.791V517.22H450.791ZM441.608 411.172L399.311 475.772L407.677 481.25L449.974 416.65L441.608 411.172ZM399.653 475.31C398.282 476.955 396.727 478.303 394.977 479.38L400.218 487.896C402.912 486.239 405.287 484.169 407.335 481.712L399.653 475.31ZM395.227 479.236C393.795 480.007 392.429 480.289 391.032 480.189L390.32 490.164C393.709 490.406 396.957 489.662 399.968 488.04L395.227 479.236ZM390.293 480.191C389.148 480.279 387.875 480.04 386.382 479.236L381.641 488.04C384.591 489.629 387.761 490.415 391.06 490.161L390.293 480.191ZM386.632 479.38C384.882 478.303 383.326 476.955 381.956 475.31L374.274 481.712C376.322 484.169 378.697 486.239 381.391 487.896L386.632 479.38ZM382.341 475.839L340.044 408.932L331.591 414.276L373.889 481.183L382.341 475.839ZM330.817 411.604V517.22H340.817V411.604H330.817ZM330.817 517.22C330.817 520.774 329.8 523.239 328.075 525.072L335.357 531.926C339.1 527.948 340.817 522.894 340.817 517.22H330.817ZM328.075 525.072C326.398 526.854 324.187 527.857 320.949 527.857V537.857C326.598 537.857 331.565 535.955 335.357 531.926L328.075 525.072ZM320.949 527.857C317.946 527.857 315.797 526.897 314.08 525.072L306.798 531.926C310.549 535.912 315.407 537.857 320.949 537.857V527.857ZM314.176 525.177C312.323 523.093 311.337 520.544 311.337 517.22H301.337C301.337 522.782 303.086 527.754 306.702 531.821L314.176 525.177ZM311.337 517.22V368.794H301.337V517.22H311.337ZM311.337 368.794C311.337 365.874 312.329 363.464 314.487 361.306L307.416 354.235C303.421 358.23 301.337 363.168 301.337 368.794H311.337ZM314.39 361.4C316.716 359.198 319.333 358.156 322.487 358.156V348.156C316.755 348.156 311.682 350.191 307.513 354.141L314.39 361.4ZM322.487 358.156C324.126 358.156 325.888 358.586 327.825 359.619L332.531 350.795C329.341 349.094 325.975 348.156 322.487 348.156V358.156ZM328.063 359.738C329.922 360.605 331.126 361.67 331.914 362.851L340.234 357.304C338.287 354.384 335.561 352.202 332.292 350.676L328.063 359.738ZM331.883 362.805L387.767 448.682L396.149 443.228L340.265 357.351L331.883 362.805ZM396.114 448.734L453.537 362.857L445.224 357.299L387.801 443.176L396.114 448.734ZM453.54 362.851C454.442 361.498 455.615 360.427 457.134 359.61L452.393 350.805C449.468 352.38 447.052 354.556 445.22 357.304L453.54 362.851ZM457.244 359.548C458.997 358.547 460.543 358.156 461.941 358.156V348.156C458.554 348.156 455.315 349.133 452.283 350.866L457.244 359.548ZM635.832 397.505L632.297 401.04V401.04L635.832 397.505ZM635.832 528.499L639.368 532.035L639.418 531.984L639.467 531.932L635.832 528.499ZM613.786 528.499L610.145 531.926L610.197 531.981L610.251 532.035L613.786 528.499ZM609.428 517.476L614.424 517.284L613.936 504.589L605.641 514.212L609.428 517.476ZM591.996 530.294L594.146 534.808L594.168 534.797L594.191 534.787L591.996 530.294ZM537.138 526.448L534.434 530.654L534.461 530.672L534.488 530.688L537.138 526.448ZM514.323 501.07L509.865 503.334L509.879 503.362L509.893 503.39L514.323 501.07ZM514.323 427.754L518.78 430.018L518.788 430.004L518.795 429.99L514.323 427.754ZM536.625 402.375L539.309 406.594L539.319 406.588L539.329 406.581L536.625 402.375ZM591.227 397.761L589.258 402.357L589.304 402.377L589.351 402.396L591.227 397.761ZM609.428 409.041L606.021 412.7L614.428 420.527V409.041H609.428ZM613.786 397.761L617.322 401.297L617.372 401.246L617.421 401.194L613.786 397.761ZM600.2 495.174L603.967 498.461L603.985 498.441L604.001 498.421L600.2 495.174ZM600.2 433.65L596.398 436.897L600.2 433.65ZM546.11 433.65L549.912 436.897L546.11 433.65ZM545.854 495.174L542.012 498.375L542.049 498.418L542.086 498.461L545.854 495.174ZM624.809 398.147C628.046 398.147 630.41 399.154 632.297 401.04L639.368 393.969C635.444 390.045 630.459 388.147 624.809 388.147V398.147ZM632.297 401.04C634.145 402.889 635.19 405.318 635.19 408.784H645.19C645.19 403.022 643.33 397.931 639.368 393.969L632.297 401.04ZM635.19 408.784V517.22H645.19V408.784H635.19ZM635.19 517.22C635.19 520.457 634.178 522.968 632.197 525.066L639.467 531.932C643.296 527.878 645.19 522.869 645.19 517.22H635.19ZM632.297 524.964C630.41 526.85 628.046 527.857 624.809 527.857V537.857C630.459 537.857 635.444 535.959 639.368 532.035L632.297 524.964ZM624.809 527.857C621.573 527.857 619.208 526.85 617.322 524.964L610.251 532.035C614.175 535.959 619.159 537.857 624.809 537.857V527.857ZM617.427 525.072C615.616 523.149 614.555 520.669 614.424 517.284L604.432 517.668C604.643 523.17 606.487 528.039 610.145 531.926L617.427 525.072ZM605.641 514.212C601.907 518.544 596.689 522.437 589.802 525.801L594.191 534.787C602.001 530.972 608.405 526.321 613.215 520.741L605.641 514.212ZM589.847 525.779C583.348 528.874 576.478 530.421 569.181 530.421V540.421C577.949 540.421 586.29 538.549 594.146 534.808L589.847 525.779ZM569.181 530.421C558.282 530.421 548.527 527.67 539.788 522.208L534.488 530.688C544.889 537.189 556.496 540.421 569.181 540.421V530.421ZM539.841 522.243C531.05 516.591 524.018 508.803 518.752 498.75L509.893 503.39C515.907 514.87 524.085 524.001 534.434 530.654L539.841 522.243ZM518.78 498.806C513.713 488.828 511.119 477.402 511.119 464.412H501.119C501.119 478.766 503.995 491.778 509.865 503.334L518.78 498.806ZM511.119 464.412C511.119 451.422 513.713 439.996 518.78 430.018L509.865 425.49C503.995 437.046 501.119 450.058 501.119 464.412H511.119ZM518.795 429.99C523.899 419.781 530.748 412.042 539.309 406.594L533.941 398.157C523.703 404.672 515.684 413.851 509.85 425.518L518.795 429.99ZM539.329 406.581C548.087 400.951 557.658 398.147 568.156 398.147V388.147C555.753 388.147 544.304 391.495 533.921 398.17L539.329 406.581ZM568.156 398.147C575.717 398.147 582.734 399.561 589.258 402.357L593.197 393.165C585.366 389.809 577.001 388.147 568.156 388.147V398.147ZM589.351 402.396C596.044 405.105 601.571 408.557 606.021 412.7L612.835 405.381C607.373 400.296 600.766 396.228 593.103 393.126L589.351 402.396ZM614.428 409.041V408.784H604.428V409.041H614.428ZM614.428 408.784C614.428 405.548 615.435 403.183 617.322 401.297L610.251 394.226C606.327 398.15 604.428 403.134 604.428 408.784H614.428ZM617.421 401.194C619.33 399.173 621.664 398.147 624.809 398.147V388.147C619.068 388.147 614.053 390.197 610.151 394.328L617.421 401.194ZM573.027 512.222C585.51 512.222 595.966 507.633 603.967 498.461L596.432 491.887C590.419 498.78 582.76 502.222 573.027 502.222V512.222ZM604.001 498.421C611.89 489.186 615.71 477.73 615.71 464.412H605.71C605.71 475.704 602.523 484.755 596.398 491.926L604.001 498.421ZM615.71 464.412C615.71 451.094 611.89 439.638 604.001 430.403L596.398 436.897C602.523 444.069 605.71 453.12 605.71 464.412H615.71ZM604.001 430.403C596.013 421.05 585.548 416.345 573.027 416.345V426.345C582.722 426.345 590.373 429.844 596.398 436.897L604.001 430.403ZM573.027 416.345C560.65 416.345 550.28 421.07 542.308 430.403L549.912 436.897C555.954 429.824 563.528 426.345 573.027 426.345V416.345ZM542.308 430.403C534.42 439.638 530.6 451.094 530.6 464.412H540.6C540.6 453.12 543.786 444.069 549.912 436.897L542.308 430.403ZM530.6 464.412C530.6 477.698 534.316 489.138 542.012 498.375L549.695 491.973C543.72 484.803 540.6 475.735 540.6 464.412H530.6ZM542.086 498.461C550.087 507.633 560.543 512.222 573.027 512.222V502.222C563.293 502.222 555.634 498.78 549.621 491.887L542.086 498.461ZM746.074 507.479L742.143 510.568L742.266 510.724L742.4 510.87L746.074 507.479ZM741.46 528.243L744.097 532.491L744.116 532.479L744.135 532.467L741.46 528.243ZM697.624 526.192L694.921 530.398L694.978 530.435L695.037 530.471L697.624 526.192ZM686.858 426.472H691.858V421.472H686.858V426.472ZM664.812 402.375L668.231 406.023L668.29 405.968L668.347 405.911L664.812 402.375ZM686.858 398.274V403.274H691.858V398.274H686.858ZM691.216 370.844L687.68 367.309L691.216 370.844ZM713.262 370.844L709.627 374.278L709.676 374.33L709.726 374.38L713.262 370.844ZM717.62 398.274H712.62V403.274H717.62V398.274ZM746.074 402.375L742.539 405.911H742.539L746.074 402.375ZM746.074 422.627L749.494 426.275L749.553 426.22L749.61 426.163L746.074 422.627ZM717.62 426.472V421.472H712.62V426.472H717.62ZM720.439 503.89L717.076 507.589L717.172 507.677L717.273 507.76L720.439 503.89ZM733.77 505.171L735.143 509.979L735.423 509.899L735.693 509.787L733.77 505.171ZM739.666 508.89C740.119 508.89 740.929 509.023 742.143 510.568L750.006 504.389C747.46 501.149 743.997 498.89 739.666 498.89V508.89ZM742.4 510.87C743.404 511.957 744.15 513.628 744.15 516.451H754.15C754.15 511.754 752.846 507.443 749.748 504.087L742.4 510.87ZM744.15 516.451C744.15 518.822 742.977 521.364 738.785 524.019L744.135 532.467C750.197 528.628 754.15 523.308 754.15 516.451H744.15ZM738.823 523.995C734.725 526.538 730.014 527.857 724.541 527.857V537.857C731.715 537.857 738.283 536.1 744.097 532.491L738.823 523.995ZM724.541 527.857C714.645 527.857 706.616 525.786 700.211 521.913L695.037 530.471C703.33 535.485 713.246 537.857 724.541 537.857V527.857ZM700.328 521.986C695.377 518.803 691.858 511.453 691.858 497.225H681.858C681.858 512.391 685.516 524.353 694.921 530.398L700.328 521.986ZM691.858 497.225V426.472H681.858V497.225H691.858ZM686.858 421.472H675.066V431.472H686.858V421.472ZM675.066 421.472C672.201 421.472 670.083 420.571 668.347 418.835L661.276 425.906C665.009 429.64 669.727 431.472 675.066 431.472V421.472ZM668.347 418.835C666.612 417.1 665.71 414.981 665.71 412.117H655.71C655.71 417.455 657.543 422.173 661.276 425.906L668.347 418.835ZM665.71 412.117C665.71 409.492 666.559 407.591 668.231 406.023L661.392 398.728C657.595 402.287 655.71 406.88 655.71 412.117H665.71ZM668.347 405.911C670.083 404.176 672.201 403.274 675.066 403.274V393.274C669.727 393.274 665.009 395.107 661.276 398.84L668.347 405.911ZM675.066 403.274H686.858V393.274H675.066V403.274ZM691.858 398.274V381.867H681.858V398.274H691.858ZM691.858 381.867C691.858 378.631 692.865 376.267 694.751 374.38L687.68 367.309C683.756 371.233 681.858 376.217 681.858 381.867H691.858ZM694.751 374.38C696.867 372.264 699.346 371.23 702.495 371.23V361.23C696.757 361.23 691.716 363.273 687.68 367.309L694.751 374.38ZM702.495 371.23C705.407 371.23 707.676 372.213 709.627 374.278L716.897 367.411C713.036 363.324 708.128 361.23 702.495 361.23V371.23ZM709.726 374.38C711.613 376.267 712.62 378.631 712.62 381.867H722.62C722.62 376.217 720.721 371.233 716.797 367.309L709.726 374.38ZM712.62 381.867V398.274H722.62V381.867H712.62ZM717.62 403.274H735.82V393.274H717.62V403.274ZM735.82 403.274C738.685 403.274 740.803 404.176 742.539 405.911L749.61 398.84C745.876 395.107 741.159 393.274 735.82 393.274V403.274ZM742.539 405.911C744.274 407.646 745.176 409.765 745.176 412.629H755.176C755.176 407.291 753.343 402.573 749.61 398.84L742.539 405.911ZM745.176 412.629C745.176 415.258 744.318 417.312 742.539 419.091L749.61 426.163C753.299 422.473 755.176 417.862 755.176 412.629H745.176ZM742.655 418.979C740.938 420.589 738.782 421.472 735.82 421.472V431.472C741.062 431.472 745.742 429.792 749.494 426.275L742.655 418.979ZM735.82 421.472H717.62V431.472H735.82V421.472ZM712.62 426.472V495.943H722.62V426.472H712.62ZM712.62 495.943C712.62 500.344 713.782 504.594 717.076 507.589L723.803 500.19C723.337 499.767 722.62 498.72 722.62 495.943H712.62ZM717.273 507.76C720.308 510.242 724.118 511.197 728.13 511.197V501.197C725.647 501.197 724.331 500.613 723.606 500.02L717.273 507.76ZM728.13 511.197C730.196 511.197 732.606 510.704 735.143 509.979L732.396 500.364C730.148 501.006 728.798 501.197 728.13 501.197V511.197ZM735.693 509.787C737.243 509.141 738.554 508.89 739.666 508.89V498.89C737.017 498.89 734.398 499.493 731.846 500.556L735.693 509.787ZM885.574 408.784L881.33 411.428L881.34 411.444L881.35 411.459L885.574 408.784ZM890.958 528.499L894.493 532.035L894.544 531.984L894.593 531.932L890.958 528.499ZM868.912 528.499L865.277 531.932L865.326 531.984L865.376 532.035L868.912 528.499ZM858.914 429.548L854.734 432.292L854.784 432.368L854.836 432.442L858.914 429.548ZM817.129 430.061L813.488 426.634L813.485 426.638L817.129 430.061ZM804.824 528.499L808.36 532.035L808.41 531.984L808.459 531.932L804.824 528.499ZM782.778 528.499L779.143 531.932L779.192 531.984L779.243 532.035L782.778 528.499ZM782.778 347.773L786.314 351.309L786.364 351.258L786.413 351.206L782.778 347.773ZM804.824 347.773L801.189 351.206L801.238 351.258L801.289 351.309L804.824 347.773ZM809.182 415.449H804.182V430.449L813.182 418.449L809.182 415.449ZM826.614 399.812L829.217 404.081L829.231 404.072L829.246 404.063L826.614 399.812ZM850.454 398.147C866.37 398.147 876.075 402.992 881.33 411.428L889.818 406.14C882.085 393.727 868.377 388.147 850.454 388.147V398.147ZM881.35 411.459C887.142 420.605 890.316 433.808 890.316 451.594H900.316C900.316 432.808 896.995 417.472 889.798 406.109L881.35 411.459ZM890.316 451.594V517.22H900.316V451.594H890.316ZM890.316 517.22C890.316 520.457 889.304 522.968 887.323 525.066L894.593 531.932C898.422 527.878 900.316 522.869 900.316 517.22H890.316ZM887.422 524.964C885.536 526.85 883.171 527.857 879.935 527.857V537.857C885.585 537.857 890.569 535.959 894.493 532.035L887.422 524.964ZM879.935 527.857C876.698 527.857 874.334 526.85 872.447 524.964L865.376 532.035C869.3 535.959 874.284 537.857 879.935 537.857V527.857ZM872.547 525.066C870.565 522.968 869.554 520.457 869.554 517.22H859.554C859.554 522.869 861.447 527.878 865.277 531.932L872.547 525.066ZM869.554 517.22V451.594H859.554V517.22H869.554ZM869.554 451.594C869.554 441.602 867.565 433.1 862.992 426.655L854.836 432.442C857.782 436.593 859.554 442.788 859.554 451.594H869.554ZM863.094 426.805C858.233 419.397 849.848 416.345 839.688 416.345V426.345C847.985 426.345 852.418 428.762 854.734 432.292L863.094 426.805ZM839.688 416.345C829.036 416.345 820.088 419.622 813.488 426.634L820.77 433.488C825.108 428.879 831.199 426.345 839.688 426.345V416.345ZM813.485 426.638C807.204 433.324 804.182 441.78 804.182 451.594H814.182C814.182 443.977 816.458 438.078 820.773 433.485L813.485 426.638ZM804.182 451.594V517.22H814.182V451.594H804.182ZM804.182 517.22C804.182 520.457 803.171 522.968 801.189 525.066L808.459 531.932C812.289 527.878 814.182 522.869 814.182 517.22H804.182ZM801.289 524.964C799.402 526.85 797.038 527.857 793.801 527.857V537.857C799.452 537.857 804.436 535.959 808.36 532.035L801.289 524.964ZM793.801 527.857C790.565 527.857 788.2 526.85 786.314 524.964L779.243 532.035C783.167 535.959 788.151 537.857 793.801 537.857V527.857ZM786.413 525.066C784.432 522.968 783.42 520.457 783.42 517.22H773.42C773.42 522.869 775.314 527.878 779.143 531.932L786.413 525.066ZM783.42 517.22V358.796H773.42V517.22H783.42ZM783.42 358.796C783.42 355.56 784.427 353.195 786.314 351.309L779.243 344.237C775.319 348.162 773.42 353.146 773.42 358.796H783.42ZM786.413 351.206C788.322 349.185 790.656 348.159 793.801 348.159V338.159C788.06 338.159 783.045 340.209 779.143 344.34L786.413 351.206ZM793.801 348.159C796.947 348.159 799.28 349.185 801.189 351.206L808.459 344.34C804.558 340.209 799.543 338.159 793.801 338.159V348.159ZM801.289 351.309C803.175 353.195 804.182 355.56 804.182 358.796H814.182C814.182 353.146 812.284 348.162 808.36 344.238L801.289 351.309ZM804.182 358.796V415.449H814.182V358.796H804.182ZM813.182 418.449C817.391 412.838 822.715 408.045 829.217 404.081L824.011 395.543C816.499 400.123 810.202 405.756 805.182 412.449L813.182 418.449ZM829.246 404.063C835.606 400.126 842.637 398.147 850.454 398.147V388.147C840.841 388.147 831.977 390.611 823.982 395.561L829.246 404.063Z" fill="#85AEE2" fill-opacity="0.96"/>
</svg>
